# xmcd
#
# Track frame offsets: 
#        150
#        18852
#        37488
#        55795
#        72838
#        92113
#        108603
#        128848
#        148959
#        162725
#        182519
#        200046
#        225705
#        241786
#        260863
#        283312
#
# Disc length: 4040 seconds
#
# Revision: 1
# Processed by: cddbd v1.5.2PL0 Copyright (c) Steve Scherf et al.
# Submitted via: ExactAudioCopy v0.99pb4
#
DISCID=fc0fc610
DTITLE=Various Artist - I Love Black Vol 1 cd 1
DYEAR=2005
DGENRE=Hip-Hop
TTITLE0=Ini Kamoze - Here Comes The Hotstepper
TTITLE1=Tone Loc - Funky Cold Medina
TTITLE2=C+C Music Factory - Gonna make you Sweat
TTITLE3=Snap - The Power
TTITLE4=Heavy D&The Boyz - Now That We Found Love
TTITLE5=US3 - Cantaloop
TTITLE6=Vanilla Ice - Ice ice Baby
TTITLE7=Salt n Pepa - Push it
TTITLE8=Black Machine - How Gee
TTITLE9=BVSMP - I need You
TTITLE10=CJ Lewis - R to The A
TTITLE11=Neneh Cherry - Buffalo Stance
TTITLE12=Monie Love - Its a Shame
TTITLE13=Mc Hammer - U Cant touch This
TTITLE14=Double Trouble - Street Tuff
TTITLE15=Young MC - Bust A Move
EXTD=
EXTT0=
EXTT1=
EXTT2=
EXTT3=
EXTT4=
EXTT5=
EXTT6=
EXTT7=
EXTT8=
EXTT9=
EXTT10=
EXTT11=
EXTT12=
EXTT13=
EXTT14=
EXTT15=
PLAYORDER=
